<svg width="238" height="58" fill="none" xmlns="http://www.w3.org/2000/svg"><g clip-path="url(#clip0_10_46)"><path d="M95.363 34.425L78.544 18.11c-1.306-1.305-3.43-1.713-5.307-1.142-1.878.57-3.102 2.039-3.102 3.752v20.394h5.96v-17.62l16.819 16.233c.898.898 2.204 1.387 3.592 1.387a6.23 6.23 0 001.715-.245c1.878-.57 3.102-2.04 3.102-3.752V17.049h-5.96v17.376zm10.124-11.258v17.457h5.961V23.167c0-.734.734-1.305 1.551-1.305h20.167v-5.057h-20.167c-4.164 0-7.512 2.855-7.512 6.362z" fill="#fff"/><path d="M133.166 26.43h-19.432v5.058h19.432V26.43zm5.143-4.568h11.921v18.844h5.96V21.862h11.92v-5.057h-29.801v5.057zm39.191 9.545V26.43c0-2.528 2.449-4.568 5.389-4.568h17.635v-5.057h-17.635c-6.287 0-11.431 4.323-11.431 9.625v4.977c0 5.302 5.144 9.625 11.431 9.625h11.022v-5.057h-11.022c-3.021-.082-5.389-2.121-5.389-4.569z" fill="#fff"/><path d="M194.646 26.349H183.46v5.058h11.186c.816 0 1.551.407 1.551.978v8.24h5.96v-8.24c.082-3.344-3.347-6.036-7.511-6.036z" fill="#EFDA1C"/><path d="M225.753 16.968h-7.43c-6.777 0-12.247 4.65-12.247 10.278v3.345c0 5.71 5.47 10.36 12.247 10.36h7.43C232.53 40.95 238 36.3 238 30.59v-3.345c0-5.629-5.552-10.278-12.247-10.278zm6.205 13.704c0 2.937-2.776 5.303-6.287 5.303h-7.43c-3.429 0-6.286-2.366-6.286-5.303v-3.344c0-2.937 2.776-5.303 6.286-5.303h7.43c3.429 0 6.287 2.366 6.287 5.303v3.344z" fill="#fff"/><path d="M46.375 58h-34.7C5.225 58 0 52.78 0 46.335v-34.67C0 5.221 5.225 0 11.675 0h34.782c6.45 0 11.675 5.22 11.675 11.665v34.751C58.051 52.78 52.825 58 46.375 58z" fill="#EFDA1C"/><path d="M35.843 19.17c-.408.163-.245.653.163.571l2.205-.081-4.41 11.747-4.163-7.587c-1.307-2.447-3.756-4.079-6.532-4.242h-1.225c-3.266.245-5.96 2.284-7.103 5.384l-6.695 18.6c-.082.162.082.244.163.244H18.37a.176.176 0 00.164-.163l4.327-11.666 4.164 7.587c1.551 2.855 4.572 4.487 7.757 4.242a8.251 8.251 0 007.103-5.302l6.94-18.926 1.878-5.14a.18.18 0 00-.245-.244L35.843 19.17z" fill="#fff"/><mask id="a" style="mask-type:luminance" maskUnits="userSpaceOnUse" x="8" y="14" width="43" height="30"><path d="M35.843 19.17c-.408.163-.245.653.163.571l2.205-.081-4.41 11.747-4.163-7.587c-1.307-2.447-3.756-4.079-6.532-4.242h-1.225c-3.266.245-5.96 2.284-7.103 5.384l-6.695 18.6c-.082.162.082.244.163.244H18.37a.176.176 0 00.164-.163l4.327-11.666 4.164 7.587c1.551 2.855 4.572 4.487 7.757 4.242a8.251 8.251 0 007.103-5.302l6.94-18.926 1.878-5.14a.18.18 0 00-.245-.244L35.843 19.17z" fill="#fff"/></mask><g mask="url(#a)"><path d="M36.741 48.619L17.962 12.563 4.98 46.253h7.512l5.062-14.439c.735-2.284 3.837-2.447 4.98-.326l7.022 13.868 7.185 3.263z" fill="#FEF3CB"/></g><mask id="b" style="mask-type:luminance" maskUnits="userSpaceOnUse" x="8" y="14" width="43" height="30"><path d="M35.843 19.17c-.408.163-.245.653.163.571l2.205-.081-4.41 11.747-4.163-7.587c-1.307-2.447-3.756-4.079-6.532-4.242h-1.225c-3.266.245-5.96 2.284-7.103 5.384l-6.695 18.6c-.082.162.082.244.163.244H18.37a.176.176 0 00.164-.163l4.327-11.666 4.164 7.587c1.551 2.855 4.572 4.487 7.757 4.242a8.251 8.251 0 007.103-5.302l6.94-18.926 1.878-5.14a.18.18 0 00-.245-.244L35.843 19.17z" fill="#fff"/></mask><g mask="url(#b)"><path d="M30.373 24.799l4.327 7.913c.816 1.468 3.02 1.386 3.592-.245l4.98-12.644H37.15l-6.776 4.976z" fill="#FEF3CB"/></g></g><defs><clipPath id="clip0_10_46"><path fill="#fff" d="M0 0h238v58H0z"/></clipPath></defs></svg>